<?xml version="1.0" ?><svg viewBox="0 0 22.105 22.105" xmlns="http://www.w3.org/2000/svg"><defs><style>.cls-1{fill:#1a171b;}</style></defs><g data-name="Layer 2" id="Layer_2"><g data-name="Layer 1" id="Layer_1-2"><path class="cls-1" d="M21.77,0H.335A.335.335,0,0,0,0,.335V21.77a.335.335,0,0,0,.335.335H9.062A.335.335,0,0,0,9.4,21.77L9.385,13.4H10.72l.01,8.367a.335.335,0,0,0,.335.334.341.341,0,0,0,.334-.335l-.01-8.366h1.332l.012,8.367a.335.335,0,0,0,.335.334h8.7a.335.335,0,0,0,.335-.335V.335A.335.335,0,0,0,21.77,0ZM9.661,12.734l1.39-2.176,1.394,2.176Zm11.774,8.7H13.4l-.012-8.369a.33.33,0,0,0-.054-.18l-2-3.13a.335.335,0,0,0-.564,0l-2,3.132a.333.333,0,0,0-.053.181l.012,8.366H.67V3.8H21.435Zm0-18.309H.67V.67H21.435ZM19.867,1.659a.341.341,0,0,1-.242.573C18.993,2.169,19.376,1.264,19.867,1.659Zm-2.028-.1a.336.336,0,0,1,0,.671A.336.336,0,0,1,17.839,1.561Zm-2.023.1a.332.332,0,1,1,.237.572A.338.338,0,0,1,15.816,1.66ZM3.126,12.046a.716.716,0,0,1,.714-.715h.74a6.646,6.646,0,0,1,.226-.84c-.514-.29-1.287-.61-.9-1.346.35-.517.69-1.71,1.546-1.248l.642.371a6.611,6.611,0,0,1,.615-.615l-.371-.642A.715.715,0,0,1,6.6,6.035c.556-.272,1.46-1.135,1.962-.307l.371.641a6.729,6.729,0,0,1,.84-.227V5.4a.714.714,0,0,1,.714-.714c.63.046,1.819-.262,1.853.714v.739a6.744,6.744,0,0,1,.841.227l.37-.641c.5-.828,1.406.034,1.962.307.7.449.192,1.106-.109,1.618a6.724,6.724,0,0,1,.614.615l.642-.371c.856-.462,1.2.729,1.546,1.248.382.739-.385,1.053-.9,1.346a6.818,6.818,0,0,1,.226.84h.739a.715.715,0,0,1,.714.715c-.046.63.262,1.819-.714,1.853h-.739a6.724,6.724,0,0,1-.226.84l.64.371a.714.714,0,0,1,.262.975c-.351.52-.688,1.708-1.545,1.248l-.643-.37a6.713,6.713,0,0,1-.614.614c.3.509.807,1.175.109,1.618l-.986.57a.335.335,0,1,1-.335-.58l.986-.57a.045.045,0,0,0,.017-.061l-.512-.885a.334.334,0,0,1,.081-.429,5.941,5.941,0,0,0,.917-.918c.27-.362.823.2,1.314.431a.051.051,0,0,0,.061-.016l.57-.987a.044.044,0,0,0-.016-.06l-.885-.511a.336.336,0,0,1-.145-.412,5.886,5.886,0,0,0,.337-1.253.336.336,0,0,1,.331-.285c-.016-.019,1.164.048,1.065-.044V12.046A.045.045,0,0,0,18.265,12H17.244a.335.335,0,0,1-.331-.284,5.851,5.851,0,0,0-.337-1.254c-.178-.415.587-.615,1.03-.922a.045.045,0,0,0,.016-.061l-.57-.986a.051.051,0,0,0-.061-.017c-.491.231-1.039.793-1.314.431a5.934,5.934,0,0,0-.917-.917.334.334,0,0,1-.081-.429l.512-.885a.045.045,0,0,0-.017-.061l-.986-.57a.051.051,0,0,0-.061.016l-.511.885a.334.334,0,0,1-.411.144,5.935,5.935,0,0,0-1.254-.336c-.448-.055-.24-.8-.285-1.352a.044.044,0,0,0-.044-.044H10.483a.044.044,0,0,0-.044.044c-.045.554.165,1.293-.285,1.352A5.911,5.911,0,0,0,8.9,7.091a.334.334,0,0,1-.412-.144l-.511-.885a.05.05,0,0,0-.06-.016l-.987.57a.044.044,0,0,0-.016.061c.231.491.792,1.039.431,1.314a5.985,5.985,0,0,0-.918.917A.336.336,0,0,1,6,8.989l-.885-.512a.051.051,0,0,0-.061.017l-.57.986a.05.05,0,0,0,.017.061c.446.31,1.205.5,1.029.922a5.91,5.91,0,0,0-.337,1.254A.335.335,0,0,1,4.861,12H3.84a.045.045,0,0,0-.044.045v1.139a.044.044,0,0,0,.044.044H4.861a.336.336,0,0,1,.331.285,5.886,5.886,0,0,0,.337,1.253c.179.416-.585.615-1.029.923a.048.048,0,0,0-.016.061l.569.986a.05.05,0,0,0,.061.016L6,16.242a.334.334,0,0,1,.429.08,5.992,5.992,0,0,0,.918.918.335.335,0,0,1,.08.429l-.511.885a.044.044,0,0,0,.016.061l.987.57a.335.335,0,0,1-.336.58L6.6,19.2a.715.715,0,0,1-.261-.976l.371-.642a6.6,6.6,0,0,1-.615-.614c-.5.3-1.183.807-1.618.109-.273-.556-1.135-1.46-.308-1.963l.641-.37a6.556,6.556,0,0,1-.226-.84H3.84C2.864,13.865,3.172,12.676,3.126,12.046ZM8.29,9.853a3.919,3.919,0,0,0-.354,5.12.335.335,0,0,1-.534.4,4.61,4.61,0,0,1,3.65-7.34,4.609,4.609,0,0,1,3.663,7.34.335.335,0,0,1-.534-.4A3.915,3.915,0,0,0,8.29,9.853Z" id="development"/></g></g></svg>